# xmcd
#
# Track frame offsets:
#	150
#	5235
#	21860
#	39538
#	56192
#	75807
#	92775
#	112709
#	130903
#	149692
#	161015
#	177026
#	193179
#	211276
#	215349
#	236399
#
# Disc length: 3257 seconds
#
# Revision: 1
# Processed by: cddbd v1.5.2PL0 Copyright (c) Steve Scherf et al.
# Submitted via: EasyCDDAExtractor 12.0.0.1
#
DISCID=d80cb710
DTITLE=Casker - Polyester Heart
DYEAR=2008
DGENRE=Electronic
TTITLE0=역광 (Intro)
TTITLE1=빛의 시간
TTITLE2=You
TTITLE3=칫솔
TTITLE4=2월
TTITLE5=아무도 모른다
TTITLE6=비밀
TTITLE7=너를 삭제 (with 하동균 of Wanted)
TTITLE8=틈
TTITLE9=이명
TTITLE10=만약에, 혹시
TTITLE11=빙빙
TTITLE12=Adrenaline
TTITLE13=너와 나 (Prelude)
TTITLE14=Polyester Heart
TTITLE15=Outro
EXTD=
EXTT0=
EXTT1=
EXTT2=
EXTT3=
EXTT4=
EXTT5=
EXTT6=
EXTT7=
EXTT8=
EXTT9=
EXTT10=
EXTT11=
EXTT12=
EXTT13=
EXTT14=
EXTT15=
PLAYORDER=
